# xmcd CD database file
#
# Track frame offsets:
#	150
#	21707
#	38968
#	61419
#	78943
#	96114
#	116956
#	138672
#	158019
#	188528
#	210698
#	228960
#
# Disc length: 3238 seconds
#
# Revision: 0
# Processed by: cddbd v1.5.1PL2 Copyright (c) Steve Scherf et al.
# Submitted via: Feurio! 1.68 - http://www.feurio.com
#
DISCID=a30ca40c
DTITLE=B.B. King - B.B. King and Friends
DYEAR=1900
DGENRE=
TTITLE0=Early in the morning - with Van Morrison
TTITLE1=Tired of your jive - with Billy F Gibbons
TTITLE2=The thrill is gone - with Eric Clapton
TTITLE3=Need your love so bad - with Sheryl Crow
TTITLE4=Ain't nobody home - with Daryl Hall
TTITLE5=Hummingbird - with John Mayer
TTITLE6=All over again - with Mark Knopfler
TTITLE7=Drivin' Wheel - with Glenn Frey
TTITLE8=There must be a better somewhere - with Gloria Estefan
TTITLE9=Never make your move too soon - with Roger Daltrey
TTITLE10=Funny how time slips away - with Bobby Bland
TTITLE11=Rock this house - with Elton John
EXTD=
EXTT0=
EXTT1=
EXTT2=
EXTT3=
EXTT4=
EXTT5=
EXTT6=
EXTT7=
EXTT8=
EXTT9=
EXTT10=
EXTT11=
PLAYORDER=
